<?xml version="1.0" encoding="UTF-8"?>
<svg version="1.1" xmlns="http://www.w3.org/2000/svg" width="1063" height="354" viewBox="0 0 1063 354">
<path d="M0 0 C6.93 0 13.86 0 21 0 C20.73556871 4.39264021 20.4697291 8.78515127 20.20043945 13.17749023 C20.10946627 14.66800128 20.01927935 16.15856055 19.92993164 17.64916992 C19.46148754 25.45569931 18.9715722 33.2361753 18 41 C18.92941406 40.79503906 19.85882812 40.59007812 20.81640625 40.37890625 C22.05261719 40.10949219 23.28882813 39.84007812 24.5625 39.5625 C25.78066406 39.29566406 26.99882813 39.02882812 28.25390625 38.75390625 C49.5430279 34.46944277 72.12799503 35.40091996 90.828125 47.1484375 C100.00656649 53.95980723 105.14089355 65.8649291 107.61328125 76.68359375 C110.25573193 99.34461021 107.25754313 120.85966708 94.0546875 139.7890625 C86.77436386 148.60208585 76.31423466 154.31428669 65 156 C51.15332022 157.24159184 37.7777607 157.13921981 26.125 148.75 C21.09262678 144.49535719 16.29545127 139.63918775 15 133 C14.34 133 13.68 133 13 133 C13 139.93 13 146.86 13 154 C6.73 154 0.46 154 -6 154 C-5.47551011 140.70032471 -4.93589848 127.40136421 -4.37579346 114.1031456 C-4.18170721 109.48893761 -3.98907819 104.87466846 -3.79632568 100.26040459 C-3.63287568 96.35071409 -3.46853433 92.44106502 -3.30224609 88.53149414 C-2.50146459 69.68559271 -1.80306385 50.84238431 -1.32861328 31.9851532 C-1.05802244 21.31120835 -0.60182389 10.66088035 0 0 Z " fill="#ED5D31" transform="translate(753,68)"/>
<path d="M0 0 C8.25038921 7.00700246 13.92869007 16.75879432 15.8125 27.4375 C16.2844448 34.3624331 16.47407383 41.519719 15.8125 48.4375 C14.05810837 50.19189163 11.75752544 49.55732963 9.42079163 49.56192017 C8.6482756 49.55832489 7.87575958 49.55472961 7.07983398 49.55102539 C5.86529541 49.55124443 5.86529541 49.55124443 4.6262207 49.5514679 C1.93698492 49.55076854 -0.75218249 49.5429751 -3.44140625 49.53515625 C-5.30085716 49.53329215 -7.16030856 49.53186821 -9.01976013 49.53086853 C-13.92379096 49.52704271 -18.82779236 49.51721188 -23.73181152 49.50616455 C-28.73201092 49.49595181 -33.73221506 49.49137121 -38.73242188 49.48632812 C-48.55079421 49.47558967 -58.36914466 49.45851248 -68.1875 49.4375 C-68.06053521 51.48483093 -67.92466536 53.5316106 -67.78515625 55.578125 C-67.67312866 57.28790527 -67.67312866 57.28790527 -67.55883789 59.03222656 C-66.5127676 68.62498686 -62.56129541 76.1841046 -55.1875 82.4375 C-52.28572412 84.19252596 -49.41354746 85.41175509 -46.1875 86.4375 C-44.54201172 86.96923828 -44.54201172 86.96923828 -42.86328125 87.51171875 C-29.31391358 90.92425875 -13.88361345 87.76122683 -0.8828125 83.3046875 C1.8125 82.4375 1.8125 82.4375 5.8125 82.4375 C5.33647957 87.95933694 4.58090906 93.41507239 3.625 98.875 C3.42519531 100.06996094 3.22539063 101.26492187 3.01953125 102.49609375 C1.8125 105.4375 1.8125 105.4375 -0.77734375 106.74609375 C-2.46537109 107.08833984 -2.46537109 107.08833984 -4.1875 107.4375 C-5.47398437 107.71851563 -6.76046875 107.99953125 -8.0859375 108.2890625 C-29.50360771 112.16825257 -57.27312596 114.02280271 -76.578125 101.94140625 C-88.91712609 92.855033 -96.15562825 81.40182604 -99.1875 66.4375 C-99.63280924 62.03271466 -99.71174332 57.67519357 -99.6875 53.25 C-99.68322998 52.06543213 -99.67895996 50.88086426 -99.67456055 49.66040039 C-99.48886074 40.05322424 -98.01476495 32.25406856 -94.1875 23.4375 C-93.83816406 22.52613281 -93.48882812 21.61476562 -93.12890625 20.67578125 C-87.61120275 7.80113976 -76.69300254 -1.00760044 -64.1875 -6.5625 C-60.22053395 -7.90041544 -56.30786955 -8.8415907 -52.1875 -9.5625 C-51.07375 -9.789375 -49.96 -10.01625 -48.8125 -10.25 C-32.06234498 -11.69397888 -13.93474273 -10.23691745 0 0 Z " fill="#1675BA" transform="translate(540.1875,114.5625)"/>
<path d="M0 0 C5.41250837 5.10696354 7.37006102 10.47884363 7.71069336 17.81787109 C7.7228306 28.65428089 7.09396989 39.40408645 6.33706665 50.2116394 C5.00102289 69.35365307 4.05949751 88.44089603 3.5625 107.625 C-6.9975 107.625 -17.5575 107.625 -28.4375 107.625 C-27.5 82.58035714 -27.5 82.58035714 -26.875 75.8125 C-26.10996213 67.11019427 -26.35918936 58.35228574 -26.4375 49.625 C-27.02015625 49.94605713 -27.6028125 50.26711426 -28.203125 50.59790039 C-35.72594833 54.57148288 -43.30879955 56.74452812 -51.515625 58.85351562 C-59.68545743 61.07927126 -66.60073676 64.33634579 -73.0625 69.875 C-75.18319104 74.11638209 -75.14416028 77.98335776 -74.4375 82.625 C-72.99696473 86.06975826 -71.85691044 87.85050841 -68.5546875 89.65234375 C-59.83574264 93.04304453 -51.2286596 92.09269392 -42.4375 89.625 C-41.1175 89.625 -39.7975 89.625 -38.4375 89.625 C-38.91242434 91.76215952 -39.3900296 93.8981076 -39.8828125 96.03125 C-40.24580446 97.72862084 -40.5555046 99.43847853 -40.8046875 101.15625 C-41.16987855 103.45173663 -41.54998939 105.47556025 -42.4375 107.625 C-45.1875 109.125 -45.1875 109.125 -48.4375 109.625 C-49.29730469 109.79515625 -50.15710938 109.9653125 -51.04296875 110.140625 C-65.79134436 112.24511128 -82.53661789 111.81393366 -95.28125 103.4140625 C-102.44449562 97.47064494 -105.70267067 88.95723303 -106.75390625 79.8984375 C-107.1510623 70.80228276 -104.45550862 63.44396661 -98.4375 56.625 C-84.67274171 44.67139412 -66.88078667 40.48101403 -49.5 36.5625 C-37.13531099 34.06457599 -37.13531099 34.06457599 -27.4375 26.625 C-25.82579612 23.40159223 -25.84207449 20.11058081 -26.4375 16.625 C-29.31347674 12.84514485 -31.94294041 10.99005855 -36.4375 9.625 C-55.14654188 7.52047637 -72.72644454 12.1796314 -90.4375 17.625 C-90.3487556 15.64508187 -90.24058438 13.6660327 -90.125 11.6875 C-90.06699219 10.58535156 -90.00898438 9.48320313 -89.94921875 8.34765625 C-89.33265915 3.86230283 -87.99370247 -0.13917196 -86.4375 -4.375 C-20.6836624 -16.98080059 -20.6836624 -16.98080059 0 0 Z " fill="#1676BA" transform="translate(322.4375,114.375)"/>
<path d="M0 0 C1.55511606 4.88321468 1.11530385 10.28145959 1.0625 15.375 C1.05798828 16.20644531 1.05347656 17.03789063 1.04882812 17.89453125 C1.03713164 19.92971897 1.01919935 21.96486923 1 24 C-3.26173425 23.45874399 -7.21104314 22.6952801 -11.3125 21.4375 C-22.84894785 18.50990896 -36.36160371 18.102029 -47 24 C-54.92334847 28.98428613 -59.06828122 37.21988626 -61.5 46.0625 C-63.45817458 57.56677568 -63.14865012 70.36327634 -56.40234375 80.21875 C-51.85050552 86.0004721 -46.13720379 89.35702982 -39 91 C-27.99652605 92.19438494 -17.65567827 90.7530735 -7 88 C-5.33461637 87.66031449 -3.66812374 87.32596329 -2 87 C-2.47442252 90.60480781 -2.95535121 94.20871812 -3.4375 97.8125 C-3.63956055 99.34874023 -3.63956055 99.34874023 -3.84570312 100.91601562 C-4.04389648 102.39038086 -4.04389648 102.39038086 -4.24609375 103.89453125 C-4.36654053 104.80050049 -4.4869873 105.70646973 -4.61108398 106.63989258 C-5 109 -5 109 -6 112 C-24.78754623 118.51812828 -50.21716104 118.73410745 -68.375 110.375 C-81.56698768 103.0978981 -88.6682172 93.0528828 -93.23828125 78.95703125 C-98.07785721 60.1695492 -96.09035299 37.7926571 -86.75390625 20.7109375 C-78.40183152 7.80149459 -66.92952617 -0.27102343 -52.01171875 -3.68359375 C-37.93271963 -6.22587877 -12.66227863 -8.12579298 0 0 Z " fill="#1675BA" transform="translate(205,109)"/>
<path d="M0 0 C8.31458539 6.28899034 13.49468433 13.99396415 15.68359375 24.2734375 C16.64326614 36.97817622 16.50124394 49.35609229 11.68359375 61.2734375 C11.33296875 62.1809375 10.98234375 63.0884375 10.62109375 64.0234375 C6.65124491 73.06587096 0.02338224 79.93752211 -9.17578125 83.6171875 C-18.57010219 86.4971983 -28.64383998 86.45106717 -37.74609375 82.65625 C-45.96793349 78.2329502 -51.15305198 72.01395051 -54.31640625 63.2734375 C-56.03334168 57.38033504 -56.60126526 52.17050531 -56.546875 46.05078125 C-56.54641678 45.18763809 -56.54595856 44.32449493 -56.54548645 43.43519592 C-56.54248108 41.61571878 -56.53464663 39.79624381 -56.5222168 37.97680664 C-56.50411788 35.24290454 -56.50170658 32.50934609 -56.50195312 29.77539062 C-56.48075639 19.5672535 -56.16454743 9.44820372 -55.31640625 -0.7265625 C-37.63377684 -5.66907563 -16.73414541 -10.6745388 0 0 Z " fill="#FEFDFC" transform="translate(825.31640625,124.7265625)"/>
<path d="M0 0 C5.14523759 4.58667318 7.71007068 9.30914506 8.25878906 16.29443359 C8.26217285 18.07841553 8.26217285 18.07841553 8.265625 19.8984375 C8.26830887 20.5572995 8.27099274 21.2161615 8.27375793 21.89498901 C8.27770846 24.05518858 8.26497548 26.21485395 8.25 28.375 C8.2478952 29.12342163 8.24579041 29.87184326 8.24362183 30.64294434 C8.20368481 42.85688135 7.64493018 54.98361481 6.78662109 67.16552734 C5.8074641 81.10155747 5.3812038 95.03590273 5 109 C-1.6 109 -8.2 109 -15 109 C-15.020625 106.545625 -15.04125 104.09125 -15.0625 101.5625 C-15.071604 100.80912354 -15.08070801 100.05574707 -15.09008789 99.27954102 C-15.10744138 94.92157534 -14.7811387 90.71021156 -14.25610352 86.38647461 C-13.77856752 81.93660388 -13.62134511 77.47004105 -13.4375 73 C-13.3950415 72.00411865 -13.35258301 71.0082373 -13.30883789 69.98217773 C-12.96398629 61.31786789 -12.89526767 52.66950965 -13 44 C-13.67160156 44.43570313 -14.34320312 44.87140625 -15.03515625 45.3203125 C-22.25561615 49.62463827 -29.20503789 52.07232976 -37.375 54.0625 C-57.76340712 58.67215058 -57.76340712 58.67215058 -73.67578125 71.28125 C-76.10849844 76.2758552 -75.60757074 81.57964978 -75 87 C-72.7319753 91.972208 -69.69646664 94.3020298 -65 97 C-60.19244424 98.60251859 -55.28434369 98.18451757 -50.25 98.1875 C-49.1775 98.19974609 -48.105 98.21199219 -47 98.22460938 C-40.40089675 98.26493203 -40.40089675 98.26493203 -33.984375 96.92578125 C-31.03440971 96.01067422 -29.81627624 95.8734895 -27 97 C-27.47488898 98.98019743 -27.95502859 100.95913635 -28.4375 102.9375 C-28.70433594 104.03964844 -28.97117187 105.14179688 -29.24609375 106.27734375 C-30 109 -30 109 -31 110 C-38.67795021 111.14802861 -46.31073507 111.18341798 -54.0625 111.1875 C-55.29033203 111.19974609 -56.51816406 111.21199219 -57.78320312 111.22460938 C-68.73798871 111.24230693 -79.22815488 109.82066352 -87.86328125 102.3984375 C-94.74515734 94.91887986 -95.79316641 86.72588878 -95.40234375 76.9140625 C-94.60975302 69.20361672 -91.53784895 64.17548171 -86.0625 58.8125 C-71.94054596 47.35853728 -53.45962765 43.4293741 -36.12573242 39.34741211 C-23.43606988 36.46699889 -23.43606988 36.46699889 -13.8125 28.25 C-11.81498762 24.46186046 -11.43837795 21.37157737 -12.25 17.17578125 C-13.64465374 13.12983264 -15.48980403 10.48134543 -19 8 C-35.22631689 0.98523839 -55.2190186 5.22580543 -71.40380859 10.32299805 C-74.38556704 11.26141415 -76.85220487 12 -80 12 C-79.34 7.38 -78.68 2.76 -78 -2 C-73.84876844 -3.38374385 -69.92323675 -4.57467861 -65.6875 -5.5625 C-64.63949219 -5.81128906 -63.59148438 -6.06007813 -62.51171875 -6.31640625 C-43.381683 -10.04027305 -16.71180238 -11.58893212 0 0 Z " fill="#EE5D31" transform="translate(714,113)"/>
<path d="M0 0 C1 1 1 1 1.11352539 3.50024414 C1.10567017 5.12627563 1.10567017 5.12627563 1.09765625 6.78515625 C1.09282227 8.53989258 1.09282227 8.53989258 1.08789062 10.33007812 C1.07532227 12.17762695 1.07532227 12.17762695 1.0625 14.0625 C1.05798828 15.29806641 1.05347656 16.53363281 1.04882812 17.80664062 C1.03699608 20.87114117 1.02051173 23.93554721 1 27 C0.44650879 26.97381592 -0.10698242 26.94763184 -0.67724609 26.9206543 C-16.83891444 26.10425828 -16.83891444 26.10425828 -30.74609375 33.46875 C-45.77207424 48.7570294 -42.15730026 76.85986922 -42.5625 96.5625 C-42.60583338 98.55664687 -42.64945153 100.55078757 -42.69335938 102.54492188 C-42.7993658 107.36321398 -42.89957164 112.18157573 -43 117 C-53.56 117 -64.12 117 -75 117 C-75.19870032 106.76693372 -74.82653615 96.70905883 -74.125 86.5 C-72.91081614 68.49696475 -72.4076391 50.47069494 -71.875 32.4375 C-71.8527964 31.68735626 -71.8305928 30.93721252 -71.80771637 30.16433716 C-71.53034651 20.77644382 -71.26398414 11.38828708 -71 2 C-61.1 2 -51.2 2 -41 2 C-40.505 8.93 -40.505 8.93 -40 16 C-39.01 14.80375 -38.02 13.6075 -37 12.375 C-29.84203965 4.23570638 -23.13051454 0.31201339 -12.1953125 -0.91015625 C-8.10920258 -1.07738139 -4.02591243 -0.70630043 0 0 Z " fill="#1675BA" transform="translate(426,105)"/>
<path d="M0 0 C0.85298376 3.67387495 1.10789471 7.0447393 1.0625 10.8125 C1.05347656 11.78832031 1.04445313 12.76414062 1.03515625 13.76953125 C1.02355469 14.50558594 1.01195312 15.24164063 1 16 C0.01902344 15.71125 -0.96195313 15.4225 -1.97265625 15.125 C-14.29337046 11.66701289 -27.95011509 9.10275382 -40 15 C-42.67185465 17.23563348 -44.45234181 18.90468363 -46 22 C-46.51707614 28.72198988 -44.83938831 32.41336019 -41 37.8125 C-36.39299835 43.08541044 -30.55999321 47.22116282 -25.05957031 51.51464844 C-3.00187868 68.74295494 -3.00187868 68.74295494 0 80 C0.97628619 89.06392971 0.46681717 96.50495336 -5 104 C-10.55678367 110.82881849 -18.36220225 114.67884743 -27 116 C-31.83573633 116.37868911 -36.65053901 116.47813477 -41.5 116.5 C-42.71002686 116.50636475 -43.92005371 116.51272949 -45.16674805 116.51928711 C-54.72324045 116.3856705 -63.91174929 115.0294169 -73 112 C-74.22517308 106.33357449 -74.09228867 100.76291482 -74 95 C-72.48019531 95.52400391 -72.48019531 95.52400391 -70.9296875 96.05859375 C-69.57820771 96.51847229 -68.22664053 96.97809409 -66.875 97.4375 C-66.20984375 97.66759766 -65.5446875 97.89769531 -64.859375 98.13476562 C-57.59716089 100.59110275 -50.75897653 101.22742597 -43.125 101.3125 C-42.26519531 101.34150391 -41.40539062 101.37050781 -40.51953125 101.40039062 C-35.04822281 101.45435649 -31.32728413 100.64391459 -26.58935547 97.86401367 C-25 97 -25 97 -23 97 C-22.690625 96.21625 -22.38125 95.4325 -22.0625 94.625 C-21 92 -21 92 -20 90 C-19.40706097 84.268256 -19.96223137 80.81580921 -23.26171875 76.06640625 C-28.78937134 69.4953316 -35.79037441 64.33207041 -42.4921875 59.02734375 C-65.05463373 40.78760918 -65.05463373 40.78760918 -66.34375 28.8046875 C-66.68989648 20.79139639 -65.93073278 14.48536382 -61 8 C-46.84902852 -7.26892764 -18.40847234 -6.13615745 0 0 Z " fill="#ED5D31" transform="translate(951,108)"/>
<path d="M0 0 C6.93 0 13.86 0 21 0 C21.11671962 8.00918938 20.95214354 15.91252957 20.44921875 23.90234375 C20.39080307 24.83070541 20.33238739 25.75906708 20.27220154 26.71556091 C20.14479846 28.72524444 20.01698971 30.73490229 19.88882446 32.74453735 C18.18610046 59.74937351 17.21560451 86.77118191 16.3125 113.8125 C16.2791946 114.8083952 16.24588921 115.80429039 16.21157455 116.83036423 C15.79790733 129.21993253 15.39498532 141.60982276 15 154 C8.07 154 1.14 154 -6 154 C-6.11288514 146.1571705 -5.97088829 138.42679688 -5.44921875 130.60546875 C-5.39080307 129.72696762 -5.33238739 128.84846649 -5.27220154 127.94334412 C-5.14469754 126.03713076 -5.01689262 124.1309375 -4.88882446 122.22476196 C-3.10251943 95.27584453 -2.19131546 68.30342722 -1.3125 41.3125 C-1.2791946 40.29097713 -1.24588921 39.26945427 -1.21157455 38.21697617 C-0.79701082 25.47831272 -0.39423445 12.73930794 0 0 Z " fill="#F05B2E" transform="translate(584,68)"/>
<path d="M0 0 C5.47436126 4.26521836 8.33699993 9.52997296 9.609375 16.25390625 C9.609375 18.89390625 9.609375 21.53390625 9.609375 24.25390625 C-7.550625 24.25390625 -24.710625 24.25390625 -42.390625 24.25390625 C-41.19425787 13.48660207 -38.7739872 8.47626274 -30.47265625 1.73046875 C-22.02320877 -4.26182234 -9.02494336 -5.53452723 0 0 Z " fill="#F7FCFE" transform="translate(516.390625,126.74609375)"/>
<path d="M0 0 C0.99 0 1.98 0 3 0 C3.33 3.3 3.66 6.6 4 10 C4.33 9.67 4.66 9.34 5 9 C8.05381859 8.56639493 10.94948345 8.53602283 14 9 C17.3100626 11.66419672 17.90320102 13.23943661 18.4375 17.4375 C17.81131227 22.53645721 16.06327006 26.73993449 12 30 C9.80859375 30.36328125 9.80859375 30.36328125 7.4375 30.3125 C6.65246094 30.30863281 5.86742187 30.30476563 5.05859375 30.30078125 C3 30 3 30 1 28 C0.67 28.66 0.34 29.32 0 30 C-0.99 30 -1.98 30 -3 30 C-2.24770642 8.99082569 -2.24770642 8.99082569 0 0 Z " fill="#303030" transform="translate(360,246)"/>
<path d="M0 0 C6.93 0 13.86 0 21 0 C21.24512678 13.82923599 20.3195947 27.57573893 19.5 41.375 C19.35509972 43.86456188 19.21056536 46.35414509 19.06640625 48.84375 C18.71515852 54.89608582 18.35938473 60.94814219 18 67 C17.67 67 17.34 67 17 67 C16.80044213 62.72964262 16.61759824 58.45871882 16.4375 54.1875 C16.38142578 52.99189453 16.32535156 51.79628906 16.26757812 50.56445312 C15.97228995 43.33973574 15.81515552 36.16050605 17 29 C17.33 28.67 17.66 28.34 18 28 C18.22881538 26.00383495 18.39531688 24.00045807 18.53515625 21.99609375 C18.62216797 20.78115234 18.70917969 19.56621094 18.79882812 18.31445312 C18.88583984 17.03505859 18.97285156 15.75566406 19.0625 14.4375 C19.15337891 13.15423828 19.24425781 11.87097656 19.33789062 10.54882812 C19.5626879 7.36617195 19.78186207 4.18311954 20 1 C13.73 1 7.46 1 1 1 C1.00523682 2.78092041 1.01047363 4.56184082 1.01586914 6.39672852 C1.03203488 12.29994759 1.04350324 18.20316591 1.05181217 24.10640049 C1.0570169 27.68333238 1.0640705 31.26024018 1.07543945 34.8371582 C1.08635433 38.29308749 1.09229497 41.74899369 1.09487724 45.20493889 C1.09760713 47.15629208 1.10540539 49.10763607 1.11329651 51.05897522 C1.11365955 56.83025107 0.90992009 62.29117437 0 68 C-0.17822432 71.04941884 -0.2303019 74.09846271 -0.28125 77.15234375 C-0.29965942 78.01130753 -0.31806885 78.8702713 -0.33703613 79.75526428 C-0.39537081 82.48261152 -0.44835138 85.21001847 -0.5 87.9375 C-0.56816286 91.53006483 -0.64184315 95.12245665 -0.71875 98.71484375 C-0.73232544 99.52654526 -0.74590088 100.33824677 -0.7598877 101.17454529 C-0.83911552 104.85990413 -1.0137972 108.46547049 -1.50219727 112.12084961 C-1.98646775 115.89454935 -2.17144264 119.54963402 -2.24609375 123.3515625 C-2.27900019 124.71094471 -2.31221232 126.07031956 -2.34570312 127.4296875 C-2.39316635 129.53380854 -2.43773937 131.63789304 -2.47680664 133.7421875 C-2.51672461 135.79975575 -2.56816996 137.85679321 -2.62109375 139.9140625 C-2.6461499 141.1304541 -2.67120605 142.3468457 -2.69702148 143.60009766 C-3 147 -3 147 -5 153 C1.27 153 7.54 153 14 153 C14 144.75 14 136.5 14 128 C14.33 128 14.66 128 15 128 C15 136.58 15 145.16 15 154 C8.07 154 1.14 154 -6 154 C-6.11288514 146.1571705 -5.97088829 138.42679688 -5.44921875 130.60546875 C-5.39080307 129.72696762 -5.33238739 128.84846649 -5.27220154 127.94334412 C-5.14469754 126.03713076 -5.01689262 124.1309375 -4.88882446 122.22476196 C-3.10251943 95.27584453 -2.19131546 68.30342722 -1.3125 41.3125 C-1.2791946 40.29097713 -1.24588921 39.26945427 -1.21157455 38.21697617 C-0.79701082 25.47831272 -0.39423445 12.73930794 0 0 Z " fill="#DA6E4C" transform="translate(584,68)"/>
<path d="M0 0 C0.99 0 1.98 0 3 0 C3.33 0.99 3.66 1.98 4 3 C4.37125 2.505 4.7425 2.01 5.125 1.5 C7.81181653 -0.64945323 9.64114713 -0.34274009 13 0 C16.34265205 1.20706879 16.94704566 1.92056849 19 5 C19.4775733 9.85532856 19.51341394 12.04398784 17.1875 16.375 C15 19 15 19 12 21 C8.4375 21.25 8.4375 21.25 5 21 C4.34 20.34 3.68 19.68 3 19 C2.34 22.3 1.68 25.6 1 29 C0.01 29 -0.98 29 -2 29 C-2.38767027 19.22209426 -1.1929947 9.68243016 0 0 Z " fill="#302F2F" transform="translate(632,255)"/>
<path d="M0 0 C1.66796875 1.21875 1.66796875 1.21875 3 3 C3.328125 5.453125 3.328125 5.453125 3.25 8.25 C3.22421875 9.22066406 3.1984375 10.19132812 3.171875 11.19140625 C2.96828749 14.51821119 2.58319389 17.71953438 2 21 C-0.29141286 21.05384521 -2.58318188 21.09272087 -4.875 21.125 C-6.15117187 21.14820313 -7.42734375 21.17140625 -8.7421875 21.1953125 C-12 21 -12 21 -14 19 C-14.61829563 15.02524236 -14.31867116 13.4580898 -12 10.125 C-7.96957293 7.27011416 -5.84275759 7.58959681 -1 8 C-1.33 6.68 -1.66 5.36 -2 4 C-4.97 4 -7.94 4 -11 4 C-10.67 2.68 -10.34 1.36 -10 0 C-6.41167292 -1.24211322 -3.6556535 -0.93335834 0 0 Z " fill="#333132" transform="translate(408,255)"/>
<path d="M0 0 C1.60332791 -0.08121924 3.20784026 -0.13929134 4.8125 -0.1875 C6.15248047 -0.23970703 6.15248047 -0.23970703 7.51953125 -0.29296875 C10 0 10 0 11.80859375 1.25390625 C13.27650553 3.40523925 13.34268958 4.53896073 13.25 7.125 C13.22421875 7.91003906 13.1984375 8.69507813 13.171875 9.50390625 C12.90657327 13.35681091 12.48653943 17.16850197 12 21 C9.70858714 21.05384521 7.41681812 21.09272087 5.125 21.125 C3.84882813 21.14820313 2.57265625 21.17140625 1.2578125 21.1953125 C-2 21 -2 21 -4 19 C-4.45111701 15.54143626 -4.4201904 13.67595848 -2.5625 10.6875 C1.11078108 8.26851002 4.67816914 8.18469363 9 8 C8.67 6.68 8.34 5.36 8 4 C5.03 4 2.06 4 -1 4 C-0.67 2.68 -0.34 1.36 0 0 Z " fill="#373737" transform="translate(319,255)"/>
<path d="M0 0 C2.5 1.5625 2.5 1.5625 4 4 C4 6.31 4 8.62 4 11 C-0.95 11 -5.9 11 -11 11 C-9.54711014 15.5841963 -9.54711014 15.5841963 -8 17 C-6.31391034 17.07205511 -4.62499341 17.08386068 -2.9375 17.0625 C-2.01839844 17.05347656 -1.09929687 17.04445313 -0.15234375 17.03515625 C0.55792969 17.02355469 1.26820313 17.01195312 2 17 C1.67 18.32 1.34 19.64 1 21 C-8.75961538 21.60576923 -8.75961538 21.60576923 -12.6875 19.6875 C-14.85421778 15.2508874 -14.72970932 10.82895874 -14 6 C-10.48638032 0.14396721 -6.65815569 -0.92108873 0 0 Z " fill="#212121" transform="translate(144,255)"/>
<path d="M0 0 C0.7734375 -0.01675781 1.546875 -0.03351563 2.34375 -0.05078125 C4.5 0.3125 4.5 0.3125 6.26953125 1.5703125 C8.44043696 4.64403931 7.680042 7.65164592 7.5 11.3125 C2.55 11.3125 -2.4 11.3125 -7.5 11.3125 C-6.16436384 16.25713635 -6.16436384 16.25713635 -3.5 17.3125 C-1.95976004 17.38200541 -0.41665012 17.39702357 1.125 17.375 C1.94226563 17.36597656 2.75953125 17.35695313 3.6015625 17.34765625 C4.22804688 17.33605469 4.85453125 17.32445312 5.5 17.3125 C5.17 18.6325 4.84 19.9525 4.5 21.3125 C-5.30989656 21.92139013 -5.30989656 21.92139013 -9.1875 19.9375 C-11.25820239 15.79609522 -11.11729911 11.84670896 -10.5 7.3125 C-8.28060446 2.23959591 -5.57955658 0.02789778 0 0 Z " fill="#313131" transform="translate(871.5,254.6875)"/>
<path d="M0 0 C2.0625 1.5625 2.0625 1.5625 3 4 C3 6.31 3 8.62 3 11 C-1.95 11 -6.9 11 -12 11 C-11.01 12.98 -10.02 14.96 -9 17 C-6.52470711 17.93267109 -6.52470711 17.93267109 -3.8125 17.875 C-2.91144531 17.91367187 -2.01039063 17.95234375 -1.08203125 17.9921875 C-0.05142578 17.99605469 -0.05142578 17.99605469 1 18 C0.67 18.99 0.34 19.98 0 21 C-9.80989656 21.60889013 -9.80989656 21.60889013 -13.6875 19.625 C-15.76637866 15.46724268 -15.73048859 11.54764956 -15 7 C-11.95346092 -0.1038458 -7.15014554 -0.91668533 0 0 Z " fill="#232223" transform="translate(444,255)"/>
<path d="M0 0 C2.375 1.5625 2.375 1.5625 4 4 C4 6.31 4 8.62 4 11 C-0.95 11 -5.9 11 -11 11 C-9.54711014 15.5841963 -9.54711014 15.5841963 -8 17 C-6.31391034 17.07205511 -4.62499341 17.08386068 -2.9375 17.0625 C-2.01839844 17.05347656 -1.09929688 17.04445313 -0.15234375 17.03515625 C0.55792969 17.02355469 1.26820313 17.01195312 2 17 C2 17.99 2 18.98 2 20 C-1.49474739 21.7473737 -5.18678856 21.55225821 -9 21 C-12.0625 19.125 -12.0625 19.125 -14 16 C-14.68950813 12.52396728 -14.72410078 9.47226281 -14 6 C-10.11003268 0.84842165 -6.38549593 -0.65158122 0 0 Z " fill="#312E2F" transform="translate(668,255)"/>
<path d="M0 0 C1.35158203 0.15275391 1.35158203 0.15275391 2.73046875 0.30859375 C3.41753906 0.39238281 4.10460937 0.47617188 4.8125 0.5625 C4.4825 1.8825 4.1525 3.2025 3.8125 4.5625 C3.07644531 4.50449219 2.34039063 4.44648438 1.58203125 4.38671875 C-4.81895485 3.98472041 -4.81895485 3.98472041 -10.3125 6.9375 C-13.57761518 11.50866125 -13.81636082 15.03614733 -13.1875 20.5625 C-12.10794488 23.80778484 -12.10794488 23.80778484 -9.1875 25.5625 C-5.48341375 25.96755116 -1.89723076 25.85032394 1.8125 25.5625 C1.8125 26.8825 1.8125 28.2025 1.8125 29.5625 C-11.08457139 30.42358043 -11.08457139 30.42358043 -14.9375 27.1875 C-18.77644274 22.70873347 -18.52693964 19.31489286 -18.46484375 13.546875 C-18.09083603 9.52234118 -16.96141295 7.48240837 -14.1875 4.5625 C-9.28684008 0.86200169 -6.09657012 -0.71258612 0 0 Z " fill="#2B2B2B" transform="translate(855.1875,246.4375)"/>
<path d="M0 0 C0 1.32 0 2.64 0 4 C-0.73605469 3.95359375 -1.47210938 3.9071875 -2.23046875 3.859375 C-8.37947669 3.58364302 -8.37947669 3.58364302 -14.0625 5.625 C-17.27650061 9.56474268 -18.04962492 12.56087746 -17.875 17.625 C-16.85599939 21.55543092 -16.50364416 22.91449752 -13 25 C-9.3090337 25.32442211 -5.69463692 25.22932229 -2 25 C-2 26.32 -2 27.64 -2 29 C-4.22808159 29.10853983 -6.45769932 29.18583307 -8.6875 29.25 C-9.92886719 29.29640625 -11.17023438 29.3428125 -12.44921875 29.390625 C-16.61495269 28.93234844 -18.11132354 27.97715845 -21 25 C-23.69275249 20.88358683 -23.51525905 16.76199092 -23 12 C-21.49306997 7.47920992 -18.96003902 4.14693301 -15.31640625 1.125 C-10.55727984 -1.18634638 -5.14967535 -0.41816913 0 0 Z " fill="#303030" transform="translate(314,247)"/>
<path d="M0 0 C1.65 0.33 3.3 0.66 5 1 C5.20496094 1.78246094 5.40992188 2.56492187 5.62109375 3.37109375 C5.89050781 4.38300781 6.15992188 5.39492188 6.4375 6.4375 C6.83775391 7.95150391 6.83775391 7.95150391 7.24609375 9.49609375 C7.75978077 11.91752001 7.75978077 11.91752001 9 13 C10.98 8.71 12.96 4.42 15 0 C16.32 0 17.64 0 19 0 C17.50069616 4.946157 15.44811735 9.40558204 13.125 14 C12.78597656 14.68578125 12.44695313 15.3715625 12.09765625 16.078125 C6.67414555 26.88390296 6.67414555 26.88390296 2 30 C-0.1875 29.625 -0.1875 29.625 -2 29 C-2 28.34 -2 27.68 -2 27 C-1.195625 26.608125 -0.39125 26.21625 0.4375 25.8125 C3.3174 24.1945286 3.3174 24.1945286 3.78125 20.83984375 C4.02120436 16.62778782 3.34854521 13.75102953 2.0625 9.75 C0 3.23389831 0 3.23389831 0 0 Z " fill="#333333" transform="translate(934,255)"/>
<path d="M0 0 C0.99 0 1.98 0 3 0 C3 1.65 3 3.3 3 5 C4.65 5 6.3 5 8 5 C8 5.99 8 6.98 8 8 C6.35 8 4.7 8 3 8 C3 12.62 3 17.24 3 22 C4.32 22.33 5.64 22.66 7 23 C7 23.99 7 24.98 7 26 C3.625 26.125 3.625 26.125 0 26 C-2 24 -2 24 -2.23046875 21.828125 C-2.15200005 17.12000279 -1.97451578 12.62894997 -1 8 C-1.99 8 -2.98 8 -4 8 C-4 7.01 -4 6.02 -4 5 C-3.01 5 -2.02 5 -1 5 C-0.67 3.35 -0.34 1.7 0 0 Z " fill="#282627" transform="translate(172,250)"/>
<path d="M0 0 C2.0625 2.5 2.0625 2.5 3 5 C2.01 5.495 2.01 5.495 1 6 C0.67 6.99 0.34 7.98 0 9 C-3.63 9 -7.26 9 -11 9 C-10.67 7.02 -10.34 5.04 -10 3 C-10.99 3.66 -11.98 4.32 -13 5 C-10.36339666 -0.8381931 -6.03940823 -1.0397516 0 0 Z " fill="#4F4F4F" transform="translate(444,255)"/>
<path d="M0 0 C0.66 0 1.32 0 2 0 C3.65625 1.6796875 3.65625 1.6796875 5.5 3.875 C7.28933258 5.99035504 9.04019124 8.04019124 11 10 C8.125 9.8125 8.125 9.8125 5 9 C3.8125 6.5 3.8125 6.5 3 4 C2.01 3.67 1.02 3.34 0 3 C0 2.01 0 1.02 0 0 Z " fill="#3280B4" transform="translate(145,187)"/>
<path d="M0 0 C2 4 2 4 1.3125 6.1875 C0 8 0 8 -3 9 C-2.01 6.03 -1.02 3.06 0 0 Z " fill="#297AB1" transform="translate(298,134)"/>
</svg>
