<?xml version="1.0" encoding="UTF-8"?>
<svg id="Layer_1" data-name="Layer 1" xmlns="http://www.w3.org/2000/svg" viewBox="0 0 950 177.12">
  <defs>
    <style>
      .cls-1 {
        fill: #f15c30;
      }

      .cls-2 {
        fill: #2575b6;
      }
    </style>
  </defs>
  <path class="cls-2" d="M104.34,149.47c0,.78-.78,4.43-1.57,9.39-1.04,5.22-1.04,6.26-2.35,13.83-13.3,3.13-24,4.43-35.74,4.43C23.22,177.12,0,153.9,0,112.69c0-21.13,6.52-40.43,17.74-52.95,11.74-12.78,27.91-18.52,51.91-18.52,13.04,0,22.43,1.3,37.56,4.96.26,2.61.52,4.43.52,4.96.26,5.74.78,13.56,1.57,22.96-14.61-4.7-23.48-6.52-32.87-6.52-25.04,0-40.17,16.69-40.17,44.08,0,25.3,13.3,39.13,37.3,39.13,9.39,0,19.3-2.09,31.56-6.26-.26,2.35-.52,4.43-.78,4.96Z"/>
  <path class="cls-2" d="M143.99,48.78c23.48-5.48,39.13-7.56,55.56-7.56,34.43,0,51.39,11.22,51.39,34.17,0,6.26-.78,20.61-1.83,36-1.04,14.35-2.35,45.13-2.61,62.6-10.43-.26-13.04-.26-17.48-.26s-6.52,0-18.52.26c1.3-12,2.61-34.43,4.17-67.3-8.35,5.48-9.39,6-28.95,11.48-20.09,5.74-28.43,12.26-28.43,22.43s8.09,16.43,21.91,16.43c7.3,0,11.74-.78,20.87-3.91-2.09,5.74-3.65,10.7-6.26,21.65-10.7,1.83-15.91,2.35-24.26,2.35-16.43,0-28.43-3.39-35.74-10.43-6.52-6-10.69-16.69-10.69-26.61,0-11.74,6-21.91,16.95-29.48,8.61-6,22.96-10.95,46.17-15.65,20.61-4.43,28.17-9.65,28.17-19.04s-8.61-14.35-22.96-14.35c-15.65,0-30.26,3.13-51.13,11.22.78-4.43,1.04-6,1.57-9.13.26-1.57.78-5.22,1.57-11.22l.52-3.65Z"/>
  <path class="cls-2" d="M317.45,62.34c11.22-15.65,20.61-21.13,36.26-21.13,3.39,0,6,.26,10.43,1.3.26,11.22.26,13.83,1.04,30.26-6-1.83-9.13-2.35-13.56-2.35-15.91,0-28.43,9.91-32.61,25.82-2.61,9.91-3.91,32.09-3.91,62.6,0,2.87,0,8.61.26,15.13-10.43-.26-13.04-.26-17.48-.26s-6.78,0-19.04.26c3.91-59.21,4.96-80.86,4.96-110.34,0-3.39,0-10.7-.26-19.3,12,.26,13.82.26,17.74.26s5.74,0,16.95-.26l-.78,18Z"/>
  <path class="cls-2" d="M411.61,108.51c-.26,2.87-.26,4.7-.26,7.56,0,22.69,15.91,37.56,40.17,37.56,12,0,23.48-2.35,43.3-8.61-1.3,5.74-2.35,12.26-4.7,27.13-18.26,3.65-28.43,4.96-42.52,4.96-25.04,0-41.74-5.22-53.73-16.69-11.74-10.96-18.26-28.17-18.26-47.73,0-20.87,7.56-41.21,20.09-53.74,11.74-11.74,28.69-17.74,49.82-17.74,38.08,0,60.52,20.35,60.52,54.78,0,4.17-.26,7.04-1.04,12.26l-93.38.26ZM472.13,93.65c0-21.13-8.61-31.04-26.35-31.04s-28.96,10.43-33.13,31.04h59.47Z"/>
  <path class="cls-1" d="M527.17,173.99c3.65-55.56,6.78-128.86,7.3-173.99,8.61.26,9.91.26,12,.26,2.61,0,3.91,0,11.22-.26-2.61,38.61-6,113.73-7.3,173.99q-9.65-.26-10.96-.26c-.52,0-3.65,0-8.35.26h-3.91Z"/>
  <path class="cls-1" d="M594.21,48.78c20.35-4.96,33.39-6.78,48.52-6.78,33.13,0,49.04,10.7,49.04,32.87,0,7.04-.78,20.87-1.83,36.26-1.3,18.78-2.09,48-2.09,62.87-8.09-.26-9.39-.26-11.22-.26-1.56,0-3.39,0-11.74.26,2.35-22.17,2.35-24,4.17-65.99,0-1.3.26-4.43.52-9.91-9.91,7.56-11.22,8.09-36.78,15.13-26.08,7.04-37.04,15.65-37.04,28.95s10.43,21.39,29.22,21.39c9.39,0,15.13-1.04,26.87-4.7-1.3,3.91-2.35,7.57-4.17,15.39-11.48,2.09-17.48,2.61-26.87,2.61-18,0-29.74-3.65-37.04-11.22-5.48-5.74-8.87-14.61-8.87-23.48,0-12.78,6.26-22.69,19.04-30.52,8.87-5.22,20.87-9.13,45.91-15.13,21.13-4.96,29.74-11.48,29.74-22.69s-11.22-18.52-29.48-18.52c-16.69,0-29.74,2.87-48.26,10.17.78-3.65,1.04-6.52,1.3-8.61l1.04-8.09Z"/>
  <path class="cls-1" d="M722.54,173.99c3.13-42.26,5.48-105.38,7.04-173.99,7.3.26,8.87.26,12,.26s4.7,0,11.48-.26c-1.57,14.61-2.09,21.39-3.13,46.95,17.48-3.91,26.61-4.96,38.87-4.96,22.96,0,38.61,6,49.3,18.78,8.87,10.96,13.56,25.82,13.56,43.56s-4.96,35.74-13.83,49.04c-10.43,15.39-26.35,23.48-46.69,23.48-22.96,0-37.3-9.13-46.43-29.48l-.26,26.61h-3.13c-3.91-.26-6.26-.26-7.3-.26-.78,0-3.65,0-7.56.26h-3.91ZM747.06,94.43c-.26,4.96-.26,9.65-.26,14.09,0,14.35,1.83,24.78,5.48,32.35,6,12.52,18.52,19.82,33.65,19.82s27.39-6.78,34.43-19.3c5.74-10.43,9.13-23.48,9.13-36.78,0-29.48-16.43-46.69-44.61-46.69-11.48,0-20.87,1.56-36.26,6.26,0,1.3-.26,4.43-1.57,30.26Z"/>
  <path class="cls-1" d="M866.01,168.51l-.52-6.78c0-.78-.26-3.13-1.04-9.13,14.61,6.26,24.78,8.61,36.26,8.61,16.43,0,26.61-7.04,26.61-18.52,0-6-2.61-10.7-9.13-16.69-2.35-2.35-2.61-2.35-16.43-13.56-8.35-6.78-12.26-10.17-15.65-13.56-8.35-8.35-12.52-16.96-12.52-25.82,0-19.04,16.69-31.04,43.82-31.04,9.13,0,18.52,1.04,31.3,3.39.52,8.35.78,11.22,1.3,18.26-10.96-4.43-18.52-6-27.65-6-16.95,0-26.87,6.26-26.87,16.69,0,5.74,2.87,10.7,9.13,16.43,3.13,2.87,4.43,4.17,15.13,12.52,6.78,5.74,11.74,9.91,14.87,12.52,9.39,8.87,14.35,18.52,14.35,28.43,0,19.3-18,32.61-44.61,32.61-11.74,0-24.78-1.83-38.08-5.22l-.26-3.13Z"/>
</svg>